<svg width="278" height="276" viewBox="0 0 278 276" fill="none" xmlns="http://www.w3.org/2000/svg">
<path d="M143.239 11.08V6.76003H145.299V21H142.839L138.459 14.1C137.179 12.1 136.253 10.5734 135.679 9.52003C135.733 11.1067 135.759 13.4934 135.759 16.68V21H133.679V6.76003H136.139L140.539 13.66C141.726 15.54 142.653 17.0734 143.319 18.26C143.266 16.66 143.239 14.2667 143.239 11.08Z" fill="white"/>
<path d="M139.77 270.32C137.89 270.32 136.424 269.893 135.37 269.04C134.33 268.187 133.804 266.94 133.79 265.3H135.93C135.97 267.433 137.264 268.5 139.81 268.5C140.864 268.5 141.67 268.3 142.23 267.9C142.804 267.487 143.09 266.893 143.09 266.12C143.09 265.493 142.857 265.013 142.39 264.68C141.924 264.333 141.084 264.027 139.87 263.76L138.65 263.5C137.184 263.207 136.077 262.727 135.33 262.06C134.584 261.393 134.21 260.473 134.21 259.3C134.21 258.127 134.664 257.193 135.57 256.5C136.477 255.793 137.704 255.44 139.25 255.44C141.117 255.44 142.517 255.84 143.45 256.64C144.397 257.44 144.884 258.54 144.91 259.94H142.79C142.724 259.02 142.417 258.347 141.87 257.92C141.337 257.48 140.47 257.26 139.27 257.26C138.337 257.26 137.624 257.433 137.13 257.78C136.637 258.127 136.39 258.62 136.39 259.26C136.39 259.913 136.61 260.407 137.05 260.74C137.49 261.1 138.304 261.407 139.49 261.66L140.73 261.92C142.357 262.267 143.524 262.767 144.23 263.42C144.95 264.073 145.31 264.953 145.31 266.06C145.31 267.38 144.817 268.42 143.83 269.18C142.857 269.94 141.504 270.32 139.77 270.32Z" fill="white"/>
<path d="M269.953 131.76V133.68H261.933V137.7H269.193V139.58H261.933V144.08H269.893V146H259.793V131.76H269.953Z" fill="white"/>
<path d="M18.9818 138.22L20.7218 131.76H22.9418L18.9418 146H16.5418L14.7418 139.34C14.3951 138.047 13.9818 136.4 13.5018 134.4C13.0218 136.4 12.6085 138.047 12.2618 139.34L10.4618 146H8.0618L4.0618 131.76H6.2818L8.0218 138.22C8.6218 140.553 9.0618 142.307 9.3418 143.48C10.1151 140.307 10.5485 138.54 10.6418 138.18L12.3618 131.76H14.6418L16.3618 138.18C16.4551 138.54 16.8885 140.307 17.6618 143.48C17.9418 142.307 18.3818 140.553 18.9818 138.22Z" fill="white"/>
<path opacity="0.19" d="M140.5 247.996C140.333 247.997 140.167 248 140 248C139.833 248 139.667 247.997 139.5 247.996V239.276C139.667 239.277 139.833 239.28 140 239.28C140.167 239.28 140.333 239.277 140.5 239.276V247.996ZM133.116 239.045C133.448 239.067 133.781 239.088 134.114 239.107L133.559 247.811C133.226 247.791 132.893 247.77 132.561 247.748L133.116 239.045ZM147.571 247.739C147.239 247.762 146.906 247.783 146.573 247.803L146.008 239.101C146.341 239.081 146.673 239.059 147.005 239.036L147.571 247.739ZM126.566 238.386C126.897 238.43 127.227 238.473 127.559 238.514L126.434 247.162C126.102 247.121 125.772 247.077 125.441 247.033L126.566 238.386ZM154.89 246.989C154.56 247.034 154.229 247.079 153.898 247.121L152.747 238.478C153.078 238.436 153.408 238.39 153.738 238.345L154.89 246.989ZM120.872 237.456L119.167 246.01C118.84 245.946 118.513 245.882 118.187 245.815L119.892 237.262C120.218 237.328 120.545 237.393 120.872 237.456ZM161.944 245.789C161.618 245.856 161.29 245.92 160.963 245.983L159.247 237.433C159.574 237.369 159.901 237.305 160.228 237.238L161.944 245.789ZM113.557 235.755C113.878 235.843 114.2 235.928 114.522 236.013L112.265 244.438C111.942 244.353 111.62 244.268 111.299 244.181L113.557 235.755ZM168.7 244.181C168.379 244.268 168.057 244.353 167.734 244.438L165.477 236.013C165.799 235.928 166.121 235.843 166.442 235.755L168.7 244.181ZM107.449 233.877C107.764 233.985 108.08 234.091 108.396 234.196L105.607 242.46C105.291 242.355 104.975 242.249 104.66 242.141L107.449 233.877ZM175.466 242.098C175.151 242.206 174.835 242.312 174.519 242.418L171.719 234.157C172.035 234.052 172.351 233.945 172.666 233.837L175.466 242.098ZM101.296 231.536C101.603 231.665 101.911 231.792 102.22 231.918L98.8936 239.982C98.5847 239.857 98.2771 239.728 97.9697 239.6L101.296 231.536ZM182.339 239.471C182.032 239.6 181.724 239.728 181.416 239.855L178.065 231.801C178.374 231.674 178.682 231.547 178.988 231.417L182.339 239.471ZM95.1436 228.711C95.4415 228.86 95.7404 229.008 96.04 229.154L92.1787 236.974C91.8793 236.827 91.5801 236.68 91.2822 236.531L95.1436 228.711ZM188.837 236.471C188.539 236.62 188.24 236.768 187.94 236.915L184.069 229.1C184.369 228.953 184.667 228.805 184.965 228.655L188.837 236.471ZM194.939 233.159C194.652 233.327 194.364 233.495 194.074 233.661L189.714 226.107C190.003 225.942 190.291 225.775 190.578 225.606L194.939 233.159ZM89.4189 225.605C89.7066 225.774 89.9947 225.942 90.2842 226.107L85.9238 233.66C85.6344 233.494 85.3464 233.327 85.0586 233.158L89.4189 225.605ZM84.8428 222.76L80.0107 230.02C79.7327 229.836 79.455 229.652 79.1787 229.466L84.0117 222.206C84.2877 222.392 84.5649 222.576 84.8428 222.76ZM200.932 229.392C200.655 229.578 200.378 229.762 200.1 229.946L195.258 222.692C195.536 222.508 195.814 222.324 196.09 222.137L200.932 229.392ZM78.6768 218.349C78.9404 218.553 79.205 218.756 79.4707 218.957L74.1729 225.884C73.9072 225.682 73.6426 225.479 73.3789 225.275L78.6768 218.349ZM206.885 225.069C206.622 225.274 206.359 225.478 206.094 225.681L200.774 218.771C201.039 218.568 201.303 218.364 201.565 218.159L206.885 225.069ZM73.4658 214.03C73.7151 214.252 73.9663 214.471 74.2178 214.689L68.4648 221.242C68.2134 221.023 67.9623 220.804 67.7129 220.583L73.4658 214.03ZM212.386 220.494C212.137 220.716 211.886 220.935 211.635 221.154L205.873 214.608C206.125 214.389 206.376 214.169 206.625 213.947L212.386 220.494ZM68.7402 209.552C68.9747 209.789 69.2104 210.024 69.4473 210.259L63.2803 216.426C63.0435 216.191 62.8078 215.956 62.5732 215.719L68.7402 209.552ZM217.426 215.719C217.191 215.956 216.956 216.191 216.719 216.426L210.552 210.259C210.789 210.024 211.024 209.789 211.259 209.552L217.426 215.719ZM64.3906 204.873C64.61 205.125 64.8299 205.376 65.0518 205.625L58.5049 211.386C58.2835 211.137 58.0639 210.886 57.8447 210.635L64.3906 204.873ZM222.242 210.533C222.023 210.785 221.804 211.037 221.583 211.286L215.03 205.533C215.252 205.284 215.471 205.032 215.689 204.78L222.242 210.533ZM60.2285 199.774C60.4307 200.039 60.6351 200.303 60.8398 200.565L53.9297 205.885C53.725 205.622 53.5206 205.359 53.3184 205.094L60.2285 199.774ZM226.884 204.825C226.682 205.091 226.479 205.356 226.275 205.62L219.349 200.321C219.553 200.058 219.756 199.793 219.957 199.527L226.884 204.825ZM56.3066 194.258C56.4906 194.536 56.6747 194.814 56.8613 195.09L49.6074 199.932C49.4207 199.655 49.2369 199.377 49.0527 199.099L56.3066 194.258ZM231.021 198.988C230.837 199.267 230.652 199.544 230.466 199.82L223.206 194.987C223.392 194.711 223.577 194.434 223.761 194.155L231.021 198.988ZM234.66 193.075C234.495 193.365 234.327 193.653 234.159 193.94L226.605 189.579C226.774 189.291 226.942 189.003 227.107 188.714L234.66 193.075ZM52.8916 188.714C53.057 189.003 53.2244 189.291 53.3926 189.578L45.8398 193.939C45.6716 193.652 45.5036 193.364 45.3379 193.074L52.8916 188.714ZM49.8994 183.069C50.0461 183.369 50.1942 183.667 50.3438 183.965L42.5283 187.836C42.3789 187.538 42.2308 187.24 42.084 186.94L49.8994 183.069ZM237.975 186.819C237.828 187.119 237.68 187.418 237.531 187.716L229.711 183.855C229.86 183.557 230.008 183.258 230.154 182.958L237.975 186.819ZM47.5811 177.988L39.5283 181.339C39.3989 181.032 39.2713 180.724 39.1445 180.416L47.1982 177.065C47.3248 177.374 47.4515 177.682 47.5811 177.988ZM240.982 180.105C240.857 180.413 240.728 180.721 240.6 181.028L232.536 177.703C232.665 177.396 232.792 177.088 232.918 176.779L240.982 180.105ZM44.8418 170.719C44.9472 171.035 45.0536 171.351 45.1621 171.666L36.9014 174.466C36.793 174.151 36.6866 173.835 36.5811 173.519L44.8418 170.719ZM243.46 173.391C243.355 173.707 243.249 174.023 243.142 174.338L234.877 171.549C234.985 171.234 235.091 170.918 235.196 170.602L243.46 173.391ZM42.9863 164.477C43.0708 164.799 43.1565 165.121 43.2441 165.442L34.8184 167.7C34.7308 167.379 34.6462 167.056 34.5615 166.733L42.9863 164.477ZM245.438 166.733C245.353 167.056 245.268 167.379 245.181 167.7L236.755 165.442C236.843 165.121 236.928 164.798 237.013 164.476L245.438 166.733ZM41.5664 158.248C41.63 158.575 41.694 158.902 41.7607 159.228L33.21 160.945C33.1432 160.619 33.0794 160.291 33.0156 159.964L41.5664 158.248ZM247.01 159.831C246.946 160.159 246.882 160.486 246.815 160.813L238.262 159.106C238.328 158.78 238.393 158.453 238.456 158.126L247.01 159.831ZM40.5215 151.747C40.5635 152.078 40.6091 152.408 40.6543 152.738L32.0098 153.89C31.9647 153.56 31.92 153.229 31.8779 152.898L40.5215 151.747ZM248.162 152.565C248.121 152.896 248.077 153.227 248.033 153.557L239.386 152.432C239.43 152.101 239.473 151.771 239.514 151.439L248.162 152.565ZM39.8984 145.008C39.9181 145.341 39.94 145.673 39.9629 146.005L31.2598 146.571C31.237 146.239 31.2161 145.906 31.1963 145.573L39.8984 145.008ZM248.811 145.439C248.791 145.773 248.77 146.105 248.748 146.438L240.045 145.882C240.067 145.55 240.088 145.217 240.107 144.884L248.811 145.439ZM249 139C249 139.167 248.998 139.333 248.997 139.5H240.277C240.278 139.333 240.28 139.167 240.28 139C240.28 138.833 240.278 138.667 240.277 138.5H248.997C248.998 138.667 249 138.833 249 139ZM39.7197 139C39.7197 139.167 39.7218 139.333 39.7227 139.5H31.0029C31.0022 139.333 31 139.167 31 139C31 138.833 31.0022 138.667 31.0029 138.5H39.7227C39.7218 138.667 39.7197 138.833 39.7197 139ZM39.9541 132.116C39.9316 132.448 39.9109 132.781 39.8916 133.114L31.1885 132.559C31.2079 132.226 31.2286 131.893 31.251 131.561L39.9541 132.116ZM248.739 131.427C248.762 131.759 248.783 132.092 248.803 132.425L240.101 132.991C240.081 132.658 240.059 132.325 240.036 131.993L248.739 131.427ZM40.6133 125.566C40.5691 125.896 40.5263 126.227 40.4854 126.558L31.8369 125.433C31.878 125.102 31.9218 124.771 31.9658 124.441L40.6133 125.566ZM248.121 125.1L239.477 126.251C239.435 125.92 239.39 125.59 239.345 125.26L247.989 124.108C248.034 124.438 248.079 124.769 248.121 125.1ZM41.7373 118.892C41.6709 119.218 41.6062 119.545 41.543 119.872L32.9893 118.166C33.0526 117.839 33.1173 117.512 33.1836 117.186L41.7373 118.892ZM246.983 118.034L238.433 119.751C238.369 119.424 238.304 119.097 238.237 118.771L246.789 117.054C246.856 117.38 246.92 117.707 246.983 118.034ZM245.181 110.299C245.268 110.62 245.353 110.942 245.438 111.265L237.013 113.522C236.928 113.2 236.842 112.878 236.755 112.557L245.181 110.299ZM43.2441 112.556C43.1565 112.877 43.0708 113.199 42.9863 113.522L34.5615 111.265C34.6462 110.942 34.7308 110.619 34.8184 110.298L43.2441 112.556ZM45.1221 106.449C45.014 106.764 44.9077 107.08 44.8027 107.397L36.5391 104.607C36.6441 104.291 36.7495 103.975 36.8574 103.66L45.1221 106.449ZM243.098 103.533C243.206 103.848 243.312 104.164 243.418 104.48L235.157 107.279C235.052 106.963 234.944 106.647 234.836 106.332L243.098 103.533ZM47.4629 100.296C47.3342 100.603 47.2067 100.911 47.0811 101.22L39.0166 97.8946C39.1425 97.5855 39.2707 97.2774 39.3994 96.9698L47.4629 100.296ZM240.854 97.583L232.801 100.934C232.674 100.625 232.547 100.317 232.417 100.01L240.471 96.6592C240.6 96.9663 240.728 97.2745 240.854 97.583ZM50.2881 94.1446C50.1389 94.4423 49.991 94.7407 49.8447 95.0401L42.0244 91.1787C42.1708 90.8794 42.3187 90.581 42.4678 90.2832L50.2881 94.1446ZM237.471 90.1621C237.62 90.4599 237.768 90.7584 237.915 91.0576L230.1 94.9287C229.953 94.6294 229.805 94.3309 229.655 94.0332L237.471 90.1621ZM53.3926 88.42C53.2243 88.7075 53.0571 88.9958 52.8916 89.2852L45.3389 84.9248C45.5045 84.6355 45.6717 84.3472 45.8398 84.0596L53.3926 88.42ZM234.158 84.0586C234.326 84.3464 234.494 84.6344 234.66 84.9239L227.107 89.2842C226.942 88.9947 226.774 88.7067 226.605 88.419L234.158 84.0586ZM56.793 83.0117C56.6067 83.2881 56.4219 83.5655 56.2383 83.8438L48.9785 79.0117C49.1624 78.7333 49.3469 78.4554 49.5332 78.1787L56.793 83.0117ZM230.945 78.8994L223.691 83.7403C223.507 83.4622 223.323 83.1843 223.137 82.9082L230.391 78.0664C230.577 78.3428 230.761 78.6212 230.945 78.8994ZM60.6504 77.6768C60.4463 77.9404 60.2435 78.205 60.042 78.4707L53.1162 73.1729C53.3177 72.9074 53.5198 72.6425 53.7236 72.3789L60.6504 77.6768ZM226.068 72.1133C226.273 72.3763 226.477 72.6395 226.68 72.9043L219.77 78.2237C219.567 77.9587 219.363 77.6955 219.158 77.4326L226.068 72.1133ZM64.9688 72.4668C64.7477 72.7159 64.5282 72.9665 64.3096 73.2178L57.7568 67.4659C57.9757 67.2144 58.1939 66.9623 58.415 66.7129L64.9688 72.4668ZM221.494 66.6133C221.715 66.8623 221.934 67.1133 222.153 67.3643L215.607 73.125C215.388 72.8738 215.169 72.6231 214.947 72.3741L221.494 66.6133ZM69.4473 67.7393C69.2101 67.9741 68.9741 68.2101 68.7393 68.4473L62.5732 62.2813C62.8082 62.0442 63.0442 61.8082 63.2812 61.5733L69.4473 67.7393ZM216.719 61.5733C216.956 61.8079 217.191 62.0436 217.426 62.2803L211.259 68.4473C211.024 68.2105 210.789 67.9748 210.552 67.7403L216.719 61.5733ZM74.125 63.3916C73.8741 63.6104 73.6237 63.8296 73.375 64.0508L67.6133 57.5049C67.8622 57.2836 68.1133 57.0648 68.3643 56.8457L74.125 63.3916ZM212.285 57.4151L206.532 63.9688C206.283 63.7476 206.032 63.5284 205.78 63.3096L211.533 56.7559C211.785 56.9748 212.036 57.1939 212.285 57.4151ZM79.2246 59.2285C78.9593 59.431 78.6959 59.6358 78.4326 59.8409L73.1133 52.9297C73.3764 52.7249 73.6402 52.5208 73.9053 52.3184L79.2246 59.2285ZM205.826 52.1153C206.092 52.3167 206.356 52.5199 206.619 52.7237L201.321 59.6504C201.058 59.4464 200.793 59.2435 200.527 59.042L205.826 52.1153ZM84.7402 55.3076C84.4622 55.4916 84.1843 55.6757 83.9082 55.8623L79.0664 48.6075C79.3427 48.4209 79.6214 48.2379 79.8994 48.0537L84.7402 55.3076ZM200.819 48.5323L195.986 55.793C195.71 55.6067 195.433 55.4219 195.154 55.2383L199.987 47.9785C200.265 48.1622 200.543 48.3462 200.819 48.5323ZM90.2852 51.8916C89.9956 52.0572 89.7076 52.2252 89.4199 52.3936L85.0586 44.8409C85.3464 44.6726 85.6344 44.5046 85.9238 44.3389L90.2852 51.8916ZM194.074 44.3379C194.364 44.5036 194.652 44.6716 194.939 44.8399L190.578 52.3926C190.291 52.2245 190.003 52.057 189.714 51.8916L194.074 44.3379ZM95.9287 48.8994C95.6296 49.046 95.3316 49.1943 95.0342 49.3438L91.1621 41.5284C91.4598 41.3789 91.7583 41.2308 92.0576 41.084L95.9287 48.8994ZM187.819 41.0244C188.119 41.1709 188.418 41.3177 188.716 41.4668L184.854 49.2881C184.556 49.139 184.257 48.991 183.958 48.8448L187.819 41.0244ZM101.933 46.1983C101.624 46.3249 101.317 46.4525 101.01 46.5821L97.6592 38.5284C97.9663 38.3988 98.2745 38.2714 98.583 38.1446L101.933 46.1983ZM181.104 38.0166C181.413 38.1425 181.721 38.2709 182.028 38.3994L178.703 46.4629C178.396 46.3342 178.087 46.2069 177.778 46.0811L181.104 38.0166ZM108.279 43.8418C107.963 43.9473 107.647 44.0546 107.332 44.1631L104.532 35.9024C104.847 35.794 105.163 35.6867 105.479 35.5811L108.279 43.8418ZM174.391 35.5391C174.707 35.6442 175.023 35.7496 175.338 35.8575L172.549 44.1221C172.234 44.0141 171.918 43.9078 171.602 43.8028L174.391 35.5391ZM114.521 41.9864C114.199 42.0708 113.877 42.1566 113.556 42.2442L111.298 33.8184C111.619 33.7309 111.942 33.6462 112.265 33.5616L114.521 41.9864ZM167.734 33.5616C168.057 33.6461 168.379 33.7309 168.7 33.8184L166.442 42.2442C166.121 42.1566 165.799 42.0708 165.477 41.9864L167.734 33.5616ZM120.751 40.5664C120.424 40.6301 120.097 40.6949 119.771 40.7617L118.054 32.21C118.38 32.1433 118.707 32.0794 119.034 32.0157L120.751 40.5664ZM161.812 32.1836L160.106 40.7373C159.78 40.6709 159.453 40.6062 159.126 40.543L160.832 31.9893C161.159 32.0526 161.486 32.1174 161.812 32.1836ZM127.251 39.5215C126.92 39.5635 126.59 39.6091 126.26 39.6543L125.108 31.0098C125.438 30.9647 125.769 30.9201 126.1 30.878L127.251 39.5215ZM153.565 30.8369C153.897 30.8781 154.227 30.9218 154.558 30.9659L153.432 39.6133C153.102 39.5691 152.771 39.5263 152.44 39.4854L153.565 30.8369ZM133.991 38.8985C133.658 38.9182 133.325 38.94 132.993 38.9629L132.427 30.2598C132.759 30.237 133.092 30.2161 133.425 30.1963L133.991 38.8985ZM146.439 30.1885C146.773 30.2079 147.105 30.2286 147.438 30.251L146.882 38.9541C146.55 38.9316 146.217 38.9109 145.884 38.8916L146.439 30.1885ZM140.5 30.003V38.7227C140.333 38.7219 140.167 38.7198 140 38.7198C139.833 38.7198 139.667 38.7219 139.5 38.7227V30.003C139.667 30.0022 139.833 30 140 30C140.167 30 140.333 30.0022 140.5 30.003Z" fill="white"/>
<rect x="140.616" y="38.6215" width="1.23164" height="8.62147" transform="rotate(-180 140.616 38.6215)" fill="white"/>
<rect x="249" y="138.384" width="1.23164" height="8.62147" transform="rotate(90 249 138.384)" fill="white"/>
<rect x="195.033" y="233.089" width="1.23164" height="8.62147" transform="rotate(150 195.033 233.089)" fill="white"/>
<rect x="193.967" y="44.295" width="1.23164" height="8.62147" transform="rotate(30 193.967 44.295)" fill="white"/>
<rect x="234.705" y="192.967" width="1.23164" height="8.62147" transform="rotate(120 234.705 192.967)" fill="white"/>
<rect x="234.089" y="83.9672" width="1.23164" height="8.62147" transform="rotate(60 234.089 83.9672)" fill="white"/>
<rect x="140.616" y="248" width="1.23164" height="8.62147" transform="rotate(-180 140.616 248)" fill="white"/>
<rect x="39.6216" y="138.384" width="1.23164" height="8.62147" transform="rotate(90 39.6216 138.384)" fill="white"/>
<rect x="90.3442" y="51.7618" width="1.23164" height="8.62147" transform="rotate(150 90.3442 51.7618)" fill="white"/>
<rect x="89.2773" y="225.622" width="1.23164" height="8.62147" transform="rotate(30 89.2773 225.622)" fill="white"/>
<rect x="53.3777" y="88.2779" width="1.23164" height="8.62147" transform="rotate(120 53.3777 88.2779)" fill="white"/>
<rect x="52.7617" y="188.656" width="1.23164" height="8.62147" transform="rotate(60 52.7617 188.656)" fill="white"/>
<path opacity="0.19" d="M140 29.5C199.921 29.5 248.5 78.2988 248.5 138.5C248.5 198.701 199.921 247.5 140 247.5C80.0793 247.5 31.5 198.701 31.5 138.5C31.5 78.2988 80.0793 29.5 140 29.5Z" stroke="white"/>
<path d="M50.9181 142.07H54.6381V143H49.7181L49.7481 142.55C49.7748 142.063 49.8848 141.597 50.0781 141.15C50.2981 140.637 50.7514 140.203 51.4381 139.85L52.2481 139.4C52.6748 139.173 52.9814 138.943 53.1681 138.71C53.3548 138.47 53.4481 138.18 53.4481 137.84C53.4481 137.473 53.3314 137.183 53.0981 136.97C52.8714 136.757 52.5548 136.65 52.1481 136.65C51.2348 136.65 50.7781 137.127 50.7781 138.08H49.7281C49.7214 137.333 49.9314 136.753 50.3581 136.34C50.7848 135.927 51.3914 135.72 52.1781 135.72C52.8981 135.72 53.4714 135.913 53.8981 136.3C54.3314 136.693 54.5481 137.193 54.5481 137.8C54.5481 138.3 54.4081 138.74 54.1281 139.12C53.8481 139.5 53.4081 139.85 52.8081 140.17L52.0981 140.57C51.6914 140.797 51.3981 141.02 51.2181 141.24C51.0448 141.46 50.9448 141.737 50.9181 142.07ZM54.8782 136.81V135.88H59.5882V136.73C58.7682 137.623 58.1582 138.577 57.7582 139.59C57.3649 140.603 57.1516 141.74 57.1182 143H56.0182C56.0716 140.66 56.8749 138.597 58.4282 136.81H54.8782ZM62.409 143.16C61.529 143.16 60.859 142.84 60.399 142.2C59.939 141.56 59.709 140.64 59.709 139.44C59.709 138.24 59.939 137.32 60.399 136.68C60.859 136.04 61.529 135.72 62.409 135.72C63.2957 135.72 63.9657 136.04 64.419 136.68C64.879 137.313 65.109 138.233 65.109 139.44C65.109 140.647 64.879 141.57 64.419 142.21C63.9657 142.843 63.2957 143.16 62.409 143.16ZM62.409 142.23C63.469 142.23 63.999 141.3 63.999 139.44C63.999 137.58 63.469 136.65 62.409 136.65C61.3557 136.65 60.829 137.58 60.829 139.44C60.829 141.3 61.3557 142.23 62.409 142.23ZM67.0037 138.4C66.6237 138.4 66.3037 138.27 66.0437 138.01C65.777 137.763 65.6437 137.457 65.6437 137.09C65.6437 136.723 65.7737 136.417 66.0337 136.17C66.287 135.923 66.6104 135.8 67.0037 135.8C67.3904 135.8 67.717 135.923 67.9837 136.17C68.2437 136.417 68.3737 136.723 68.3737 137.09C68.3737 137.457 68.2437 137.763 67.9837 138.01C67.717 138.27 67.3904 138.4 67.0037 138.4ZM67.0037 137.72C67.1837 137.72 67.3337 137.66 67.4537 137.54C67.5737 137.42 67.6337 137.27 67.6337 137.09C67.6337 136.91 67.5737 136.763 67.4537 136.65C67.3337 136.53 67.1837 136.47 67.0037 136.47C66.8237 136.47 66.6737 136.53 66.5537 136.65C66.4337 136.763 66.3737 136.91 66.3737 137.09C66.3737 137.27 66.4337 137.42 66.5537 137.54C66.6804 137.66 66.8304 137.72 67.0037 137.72Z" fill="white" fill-opacity="0.72"/>
<path d="M222.816 136.29C223.543 136.857 223.906 137.907 223.906 139.44C223.906 140.64 223.676 141.57 223.216 142.23C222.756 142.89 222.093 143.22 221.226 143.22C220.553 143.22 219.999 143.05 219.566 142.71C219.133 142.363 218.863 141.887 218.756 141.28H219.786C219.853 141.62 220.009 141.883 220.256 142.07C220.509 142.25 220.829 142.34 221.216 142.34C222.289 142.34 222.843 141.443 222.876 139.65C222.676 139.943 222.416 140.177 222.096 140.35C221.783 140.517 221.446 140.6 221.086 140.6C220.333 140.6 219.739 140.373 219.306 139.92C218.873 139.467 218.656 138.9 218.656 138.22C218.656 137.507 218.889 136.92 219.356 136.46C219.829 136.007 220.443 135.78 221.196 135.78C221.843 135.78 222.383 135.95 222.816 136.29ZM221.196 139.72C221.629 139.72 221.983 139.58 222.256 139.3C222.536 139.02 222.676 138.657 222.676 138.21C222.676 137.757 222.539 137.39 222.266 137.11C221.993 136.83 221.636 136.69 221.196 136.69C220.763 136.69 220.409 136.833 220.136 137.12C219.863 137.4 219.726 137.763 219.726 138.21C219.726 138.65 219.863 139.013 220.136 139.3C220.416 139.58 220.769 139.72 221.196 139.72ZM227.451 143.16C226.571 143.16 225.901 142.84 225.441 142.2C224.981 141.56 224.751 140.64 224.751 139.44C224.751 138.24 224.981 137.32 225.441 136.68C225.901 136.04 226.571 135.72 227.451 135.72C228.338 135.72 229.008 136.04 229.461 136.68C229.921 137.313 230.151 138.233 230.151 139.44C230.151 140.647 229.921 141.57 229.461 142.21C229.008 142.843 228.338 143.16 227.451 143.16ZM227.451 142.23C228.511 142.23 229.041 141.3 229.041 139.44C229.041 137.58 228.511 136.65 227.451 136.65C226.398 136.65 225.871 137.58 225.871 139.44C225.871 141.3 226.398 142.23 227.451 142.23ZM232.046 138.4C231.666 138.4 231.346 138.27 231.086 138.01C230.819 137.763 230.686 137.457 230.686 137.09C230.686 136.723 230.816 136.417 231.076 136.17C231.329 135.923 231.652 135.8 232.046 135.8C232.432 135.8 232.759 135.923 233.026 136.17C233.286 136.417 233.416 136.723 233.416 137.09C233.416 137.457 233.286 137.763 233.026 138.01C232.759 138.27 232.432 138.4 232.046 138.4ZM232.046 137.72C232.226 137.72 232.376 137.66 232.496 137.54C232.616 137.42 232.676 137.27 232.676 137.09C232.676 136.91 232.616 136.763 232.496 136.65C232.376 136.53 232.226 136.47 232.046 136.47C231.866 136.47 231.716 136.53 231.596 136.65C231.476 136.763 231.416 136.91 231.416 137.09C231.416 137.27 231.476 137.42 231.596 137.54C231.722 137.66 231.872 137.72 232.046 137.72Z" fill="white" fill-opacity="0.72"/>
<path d="M140.429 57.16C139.549 57.16 138.879 56.84 138.419 56.2C137.959 55.56 137.729 54.64 137.729 53.44C137.729 52.24 137.959 51.32 138.419 50.68C138.879 50.04 139.549 49.72 140.429 49.72C141.315 49.72 141.985 50.04 142.439 50.68C142.899 51.3134 143.129 52.2334 143.129 53.44C143.129 54.6467 142.899 55.57 142.439 56.21C141.985 56.8434 141.315 57.16 140.429 57.16ZM140.429 56.23C141.489 56.23 142.019 55.3 142.019 53.44C142.019 51.58 141.489 50.65 140.429 50.65C139.375 50.65 138.849 51.58 138.849 53.44C138.849 55.3 139.375 56.23 140.429 56.23ZM145.023 52.4C144.643 52.4 144.323 52.27 144.063 52.01C143.797 51.7634 143.663 51.4567 143.663 51.09C143.663 50.7234 143.793 50.4167 144.053 50.17C144.307 49.9234 144.63 49.8 145.023 49.8C145.41 49.8 145.737 49.9234 146.003 50.17C146.263 50.4167 146.393 50.7234 146.393 51.09C146.393 51.4567 146.263 51.7634 146.003 52.01C145.737 52.27 145.41 52.4 145.023 52.4ZM145.023 51.72C145.203 51.72 145.353 51.66 145.473 51.54C145.593 51.42 145.653 51.27 145.653 51.09C145.653 50.91 145.593 50.7634 145.473 50.65C145.353 50.53 145.203 50.47 145.023 50.47C144.843 50.47 144.693 50.53 144.573 50.65C144.453 50.7634 144.393 50.91 144.393 51.09C144.393 51.27 144.453 51.42 144.573 51.54C144.7 51.66 144.85 51.72 145.023 51.72Z" fill="white" fill-opacity="0.72"/>
<path d="M134.689 221.88H135.549V229H134.479V223.92H132.849V223.13L133.009 223.12C133.523 223.087 133.906 222.98 134.159 222.8C134.419 222.613 134.596 222.307 134.689 221.88ZM140.55 225.2C141.403 225.533 141.83 226.127 141.83 226.98C141.83 227.647 141.587 228.173 141.1 228.56C140.613 228.96 139.967 229.16 139.16 229.16C138.353 229.16 137.707 228.96 137.22 228.56C136.733 228.173 136.49 227.647 136.49 226.98C136.49 226.127 136.917 225.533 137.77 225.2C137.11 224.88 136.78 224.373 136.78 223.68C136.78 223.067 137.003 222.587 137.45 222.24C137.883 221.893 138.453 221.72 139.16 221.72C139.86 221.72 140.433 221.893 140.88 222.24C141.32 222.587 141.54 223.067 141.54 223.68C141.54 224.373 141.21 224.88 140.55 225.2ZM140.53 223.71C140.53 223.357 140.403 223.083 140.15 222.89C139.897 222.697 139.567 222.6 139.16 222.6C138.753 222.6 138.423 222.697 138.17 222.89C137.917 223.083 137.79 223.357 137.79 223.71C137.79 224.063 137.917 224.337 138.17 224.53C138.423 224.723 138.753 224.82 139.16 224.82C139.567 224.82 139.897 224.723 140.15 224.53C140.403 224.337 140.53 224.063 140.53 223.71ZM138 227.91C138.287 228.143 138.673 228.26 139.16 228.26C139.647 228.26 140.033 228.143 140.32 227.91C140.6 227.677 140.74 227.353 140.74 226.94C140.74 226.527 140.6 226.207 140.32 225.98C140.04 225.747 139.653 225.63 139.16 225.63C138.66 225.63 138.27 225.747 137.99 225.98C137.71 226.207 137.57 226.527 137.57 226.94C137.57 227.36 137.713 227.683 138 227.91ZM145.258 229.16C144.378 229.16 143.708 228.84 143.248 228.2C142.788 227.56 142.558 226.64 142.558 225.44C142.558 224.24 142.788 223.32 143.248 222.68C143.708 222.04 144.378 221.72 145.258 221.72C146.144 221.72 146.814 222.04 147.268 222.68C147.728 223.313 147.958 224.233 147.958 225.44C147.958 226.647 147.728 227.57 147.268 228.21C146.814 228.843 146.144 229.16 145.258 229.16ZM145.258 228.23C146.318 228.23 146.848 227.3 146.848 225.44C146.848 223.58 146.318 222.65 145.258 222.65C144.204 222.65 143.678 223.58 143.678 225.44C143.678 227.3 144.204 228.23 145.258 228.23ZM149.852 224.4C149.472 224.4 149.152 224.27 148.892 224.01C148.626 223.763 148.492 223.457 148.492 223.09C148.492 222.723 148.622 222.417 148.882 222.17C149.136 221.923 149.459 221.8 149.852 221.8C150.239 221.8 150.566 221.923 150.832 222.17C151.092 222.417 151.222 222.723 151.222 223.09C151.222 223.457 151.092 223.763 150.832 224.01C150.566 224.27 150.239 224.4 149.852 224.4ZM149.852 223.72C150.032 223.72 150.182 223.66 150.302 223.54C150.422 223.42 150.482 223.27 150.482 223.09C150.482 222.91 150.422 222.763 150.302 222.65C150.182 222.53 150.032 222.47 149.852 222.47C149.672 222.47 149.522 222.53 149.402 222.65C149.282 222.763 149.222 222.91 149.222 223.09C149.222 223.27 149.282 223.42 149.402 223.54C149.529 223.66 149.679 223.72 149.852 223.72Z" fill="white" fill-opacity="0.72"/>
</svg>
