<svg width="93" height="93" viewBox="0 0 93 93" fill="none" xmlns="http://www.w3.org/2000/svg">
<path d="M79.4374 28.2013L46.4999 46.4999M46.4999 46.4999L13.5624 28.2013M46.4999 46.4999L46.5 83.3125M81.375 62.2269V30.7731C81.375 29.4454 81.375 28.7815 81.1794 28.1894C81.0063 27.6656 80.7234 27.1848 80.3496 26.7791C79.927 26.3205 79.3467 25.9981 78.186 25.3533L49.511 9.42276C48.412 8.81222 47.8625 8.50695 47.2806 8.38727C46.7656 8.28135 46.2344 8.28135 45.7194 8.38727C45.1375 8.50695 44.588 8.81222 43.489 9.42276L14.814 25.3533C13.6534 25.9981 13.073 26.3205 12.6505 26.7791C12.2766 27.1848 11.9937 27.6656 11.8206 28.1894C11.625 28.7815 11.625 29.4454 11.625 30.7731V62.2269C11.625 63.5546 11.625 64.2185 11.8206 64.8106C11.9937 65.3344 12.2766 65.8152 12.6505 66.2209C13.073 66.6795 13.6534 67.0019 14.814 67.6467L43.489 83.5772C44.588 84.1878 45.1375 84.493 45.7194 84.6127C46.2344 84.7186 46.7656 84.7186 47.2806 84.6127C47.8625 84.493 48.412 84.1878 49.511 83.5772L78.186 67.6467C79.3466 67.0019 79.927 66.6795 80.3496 66.2209C80.7234 65.8152 81.0063 65.3344 81.1794 64.8106C81.375 64.2185 81.375 63.5546 81.375 62.2269Z" stroke="#8AA8DD" stroke-opacity="0.77" stroke-width="2" stroke-linecap="round" stroke-linejoin="round"/>
<path d="M63.9375 36.8125L29.0625 17.4375" stroke="#8AA8DD" stroke-opacity="0.77" stroke-width="2" stroke-linecap="round" stroke-linejoin="round"/>
</svg>
