<svg width="93" height="93" viewBox="0 0 93 93" fill="none" xmlns="http://www.w3.org/2000/svg">
<path d="M79.4374 28.2013L46.4999 46.4999M46.4999 46.4999L13.5624 28.2013M46.4999 46.4999L46.5 83.3125M54.25 80.9444L49.511 83.5772C48.412 84.1878 47.8625 84.493 47.2806 84.6127C46.7656 84.7186 46.2344 84.7186 45.7194 84.6127C45.1375 84.493 44.588 84.1878 43.489 83.5772L14.814 67.6467C13.6534 67.0019 13.073 66.6794 12.6505 66.2209C12.2766 65.8152 11.9937 65.3344 11.8206 64.8106C11.625 64.2185 11.625 63.5546 11.625 62.2269V30.7731C11.625 29.4454 11.625 28.7815 11.8206 28.1894C11.9937 27.6656 12.2766 27.1848 12.6505 26.7791C13.073 26.3205 13.6534 25.9981 14.814 25.3533L43.489 9.42276C44.588 8.81224 45.1375 8.50695 45.7194 8.38727C46.2344 8.28135 46.7656 8.28135 47.2806 8.38727C47.8625 8.50695 48.412 8.81222 49.511 9.42276L78.186 25.3533C79.3467 25.9981 79.927 26.3205 80.3496 26.7791C80.7234 27.1848 81.0063 27.6656 81.1794 28.1894C81.375 28.7815 81.375 29.4454 81.375 30.7731L81.375 48.4375M29.0625 17.4375L63.9375 36.8125M62 69.75L69.75 77.5L85.25 62" stroke="#83C18F" stroke-width="2" stroke-linecap="round" stroke-linejoin="round"/>
</svg>
